<svg xmlns="http://www.w3.org/2000/svg" height="245.96" width="862.76"><path d="M270.776 245.12h-10.073l-9.463-33.274c-.305-1.145-.764-3.203-.916-5.265h-.61c-.154 2.062-.611 4.12-.917 5.342l-9.005 33.197h-10.073c-4.044-16.56-7.708-34.19-10.302-50.977 3.052-.535 6.639-.84 9.158-.84l6.257 33.884c.305 1.83.533 3.814.533 5.341h.688a32.46 32.46 0 01.992-5.19l9.311-33.654h8.7l8.928 33.732c.381 1.601.764 3.585.916 5.112h.687c.076-1.603.381-3.51.686-5.112l6.64-34.113c2.442 0 5.952.305 8.394.84-2.823 16.865-6.563 34.188-10.531 50.977M292.528 245.12v-39.836h8.699v39.836zm4.273-45.33c-3.281 0-4.884-2.442-4.884-5.114 0-2.67 1.603-5.265 4.96-5.265 3.358 0 4.96 2.517 4.96 5.265 0 2.747-1.678 5.113-5.036 5.113M334.959 213.983c-.916-.228-2.367-.382-3.664-.382-3.206 0-5.495.764-8.014 3.054v28.465h-8.698v-39.532c2.441-.304 5.952-.533 8.698-.533v5.113h.459c3.968-5.19 6.563-5.647 9.081-5.647.763 0 1.984.153 2.9.456 0 2.978-.305 6.107-.762 9.006M378.836 196.43c-.763-.151-2.9-.229-3.968-.229-3.13 0-4.273 1.528-4.273 4.81v4.273h8.698c0 2.519-.228 5.113-.609 7.632h-8.09v32.204h-8.7v-32.204h-4.578v-7.632h4.579v-3.587c0-8.394 5.876-13.354 12.82-13.354 1.526 0 3.74.152 4.656.303 0 2.597-.154 5.191-.535 7.785M410.505 200.933c-3.052 0-4.732-2.136-4.732-4.883 0-2.671 1.603-4.96 4.81-4.96 3.052 0 4.654 2.213 4.654 4.96 0 2.824-1.602 4.883-4.732 4.883zm-14.27 0c-3.052 0-4.655-2.136-4.655-4.883 0-2.671 1.527-4.96 4.732-4.96 3.13 0 4.73 2.213 4.73 4.96 0 2.824-1.678 4.883-4.807 4.883zm14.27 44.187v-3.433h-.458c-3.586 2.975-7.02 4.196-10.911 4.196-6.107 0-11.524-3.128-11.524-12.287v-28.008c2.519-.381 5.952-.533 8.7-.533v27.549c0 3.588 1.603 5.572 6.41 5.572 2.975 0 5.494-.764 7.783-2.061v-30.527c2.519-.381 5.954-.533 8.7-.533v40.065h-8.7M455.532 245.12v-27.55c0-3.129-.992-5.342-5.95-5.342-3.283 0-5.878.916-8.32 2.595v30.297h-8.7v-56.168c2.442-.306 5.953-.61 8.7-.61v20.682h.458c3.663-3.281 6.944-4.503 10.99-4.503 6.791 0 11.523 3.663 11.523 12.21v28.389h-8.701M497.735 213.983c-.916-.228-2.367-.382-3.663-.382-3.207 0-5.495.764-8.013 3.054v28.465h-8.699v-39.532c2.441-.304 5.95-.533 8.699-.533v5.113h.458c3.967-5.19 6.563-5.647 9.08-5.647.764 0 1.986.153 2.9.456 0 2.978-.304 6.107-.762 9.006M514.143 221.463h13.813c.076-.46.076-1.679.076-2.138 0-5.646-2.213-8.165-6.639-8.165-4.58 0-7.173 3.052-7.25 10.303zm22.361 6.105h-22.437v.533c0 6.487 2.061 9.54 9.616 9.54 3.586 0 8.165-1.067 10.53-2.442.84 2.29 1.603 5.496 1.984 8.166-3.28 1.603-8.928 2.518-12.668 2.518-12.209 0-19.001-6.716-19.001-20.147 0-14.347 7.173-21.215 17.017-21.215 10.456 0 15.263 6.563 15.263 17.018 0 1.678-.076 4.197-.304 6.029M570.54 245.12v-27.55c0-3.433-1.373-5.342-5.952-5.342-3.128 0-5.8.84-8.319 2.595v30.297h-8.698v-39.532c2.441-.304 5.952-.533 8.698-.533v3.969h.459c3.967-3.662 7.325-4.503 10.99-4.503 6.18 0 11.523 3.129 11.523 12.287v28.312h-8.701M657.004 245.12h-10.073l-9.463-33.274c-.305-1.145-.764-3.203-.916-5.265h-.61c-.153 2.062-.611 4.12-.915 5.342l-9.006 33.197h-10.073c-4.045-16.56-7.708-34.19-10.304-50.977 3.053-.535 6.64-.84 9.159-.84l6.257 33.884c.305 1.83.535 3.814.535 5.341h.686a32.46 32.46 0 01.992-5.19l9.311-33.654h8.7l8.928 33.732c.381 1.601.763 3.585.917 5.112h.686c.077-1.603.381-3.51.686-5.112l6.64-34.113c2.443 0 5.952.305 8.395.84-2.824 16.865-6.564 34.188-10.532 50.977M678.001 245.12v-39.836h8.699v39.836zm4.274-45.33c-3.282 0-4.884-2.442-4.884-5.114 0-2.67 1.602-5.265 4.96-5.265 3.357 0 4.96 2.517 4.96 5.265 0 2.747-1.678 5.113-5.036 5.113M709.29 245.883c-4.274 0-9.006-.992-12.21-2.747.61-2.824 1.144-5.19 2.059-7.861 3.129 1.68 7.861 2.671 11.677 2.671 3.435 0 4.808-1.525 4.808-4.045 0-6.64-18.087-3.357-18.087-16.56 0-8.624 7.479-12.82 16.026-12.82 2.594 0 6.564.382 9.616 1.222-.076 2.364-.611 5.265-1.22 7.858-2.748-.914-7.251-1.525-10.534-1.525-3.204 0-4.73 1.45-4.73 4.198 0 6.18 17.934 2.976 17.934 17.246 0 8.623-7.402 12.363-15.34 12.363M744.165 245.883c-4.273 0-9.005-.992-12.209-2.747.61-2.824 1.144-5.19 2.06-7.861 3.128 1.68 7.86 2.671 11.677 2.671 3.434 0 4.807-1.525 4.807-4.045 0-6.64-18.085-3.357-18.085-16.56 0-8.624 7.477-12.82 16.024-12.82 2.594 0 6.564.382 9.616 1.222-.076 2.364-.611 5.265-1.22 7.858-2.748-.914-7.251-1.525-10.532-1.525-3.206 0-4.731 1.45-4.731 4.198 0 6.18 17.933 2.976 17.933 17.246 0 8.623-7.402 12.363-15.34 12.363M776.752 221.463h13.813c.076-.46.076-1.679.076-2.138 0-5.646-2.213-8.165-6.638-8.165-4.58 0-7.174 3.052-7.251 10.303zm22.361 6.105h-22.437v.533c0 6.487 2.061 9.54 9.616 9.54 3.587 0 8.165-1.067 10.53-2.442.84 2.29 1.603 5.496 1.985 8.166-3.28 1.603-8.928 2.518-12.668 2.518-12.21 0-19.002-6.716-19.002-20.147 0-14.347 7.174-21.215 17.018-21.215 10.456 0 15.262 6.563 15.262 17.018 0 1.678-.076 4.197-.304 6.029M833.15 245.12v-27.55c0-3.433-1.374-5.342-5.953-5.342-3.128 0-5.8.84-8.318 2.595v30.297h-8.699v-39.532c2.441-.304 5.952-.533 8.699-.533v3.969h.458c3.968-3.662 7.326-4.503 10.99-4.503 6.181 0 11.524 3.129 11.524 12.287v28.312h-8.702M857.876 245.96c-2.9 0-4.96-1.603-4.96-5.039 0-3.28 2.136-5.035 4.96-5.035 2.67 0 4.884 1.755 4.884 5.035 0 3.436-2.213 5.039-4.884 5.039" fill="#231f20"/><path d="M29.48.004v14.807l100.646 14.098v106.432l14.92 2.09V16.193L29.48.004" fill="#ed1c24"/><path d="M0 145.116l115.568 16.19V40.067L0 23.878v121.24" fill="#ed1c24"/><path d="M250.453 146.71c-9.509 0-20.889-1.4-29.929-5.3v-22.29c2.337-.312 5.923-.468 8.105-.468 2.339 0 6.079.156 8.262.468l1.558 9.821c3.274 1.092 8.107 1.714 13.407 1.714 10.756 0 15.588-4.52 15.588-12.937 0-19.175-46.297-16.837-46.297-48.325 0-19.797 15.588-30.865 38.346-30.865 8.107 0 17.616.935 24.787 2.805v23.539c-2.339.312-6.08.624-8.261.624-2.339 0-6.392-.312-8.731-.624l-1.247-9.664c-2.338-.312-6.236-.624-9.509-.624-11.38 0-15.12 4.832-15.12 12.627 0 16.524 46.296 15.744 46.296 48.012 0 19.797-14.652 31.488-37.255 31.488M377.095 145.152h-72.486c-.157-2.182-.313-5.143-.313-7.327 0-2.182.156-5.144.313-7.326l10.6-1.558V56.3l-10.6-1.559c-.157-2.183-.313-5.144-.313-7.327 0-2.181.156-5.144.313-7.326h40.84c.158 2.182.314 5.145.314 7.326 0 2.183-.156 5.144-.314 7.327l-10.754 1.559v72.952h24.161l1.248-9.82c2.337-.311 6.39-.466 8.73-.466 2.337 0 5.922.155 8.26.466v25.721M483.985 54.74l-8.885 1.559v50.194c0 28.215-13.561 40.218-39.283 40.218-26.966 0-39.284-12.003-39.284-40.218V56.3l-8.885-1.559c-.156-2.183-.31-5.144-.31-7.327 0-2.181.154-5.144.31-7.326h36.79c.313 2.182.469 5.145.469 7.326 0 2.183-.156 5.144-.468 7.327l-8.418 1.559v50.194c0 16.836 4.988 23.227 20.108 23.227 15.122 0 20.422-6.39 20.422-23.227V56.3l-8.418-1.559c-.313-2.183-.468-5.144-.468-7.327 0-2.181.155-5.144.468-7.326h35.852c.314 2.182.468 5.145.468 7.326 0 2.183-.154 5.144-.468 7.327M545.82 98.855h-14.497v31.8c2.962.157 9.977.313 13.406.313 12.315 0 17.927-5.145 17.927-16.68 0-10.6-6.392-15.433-16.836-15.433zm-2.181-44.738c-3.275 0-8.419.155-12.316.311v29.773h14.341c8.73 0 14.343-4.988 14.343-15.432 0-10.288-5.612-14.652-16.368-14.652zm.466 91.971c-10.91 0-29.773-.312-42.4-.936-.156-2.182-.312-5.143-.312-7.327 0-2.182.156-5.144.312-7.326l10.6-1.558V56.3l-10.6-1.559c-.156-2.183-.312-5.144-.312-7.327 0-2.181.156-5.144.312-7.326 12.938-.624 27.435-.935 40.842-.935 24.006 0 37.257 8.105 37.257 27.747 0 10.756-6.236 18.861-14.341 22.604v1.245c11.066 3.585 17.302 12.316 17.302 24.475 0 22.602-16.524 30.865-38.66 30.865" fill="#231f20"/></svg>