<svg xmlns="http://www.w3.org/2000/svg" height="161.303" width="582.765"><path d="M29.48 0v14.807l100.646 14.098v106.432l14.92 2.09V16.189L29.48 0" fill="#ed1c24"/><path d="M0 145.112l115.568 16.19V40.063L0 23.874v121.24" fill="#ed1c24"/><path d="M250.453 146.707c-9.509 0-20.889-1.402-29.929-5.3v-22.291c2.337-.312 5.923-.468 8.105-.468 2.339 0 6.079.156 8.262.468l1.558 9.821c3.274 1.092 8.107 1.714 13.407 1.714 10.756 0 15.588-4.52 15.588-12.937 0-19.175-46.297-16.837-46.297-48.325 0-19.797 15.588-30.865 38.346-30.865 8.107 0 17.616.935 24.787 2.805v23.539c-2.339.312-6.08.624-8.261.624-2.339 0-6.392-.312-8.731-.624l-1.247-9.664c-2.338-.312-6.236-.624-9.509-.624-11.38 0-15.12 4.832-15.12 12.627 0 16.524 46.296 15.744 46.296 48.012 0 19.797-14.652 31.488-37.255 31.488M377.095 145.148h-72.486c-.157-2.182-.313-5.143-.313-7.327 0-2.182.156-5.144.313-7.326l10.6-1.558V56.295l-10.6-1.559c-.157-2.183-.313-5.144-.313-7.327 0-2.181.156-5.144.313-7.326h40.84c.158 2.182.314 5.145.314 7.326 0 2.183-.156 5.144-.314 7.327l-10.754 1.559v72.952h24.161l1.248-9.82c2.337-.311 6.39-.466 8.73-.466 2.337 0 5.922.155 8.26.466v25.721M483.985 54.736l-8.885 1.559v50.194c0 28.215-13.561 40.218-39.283 40.218-26.966 0-39.284-12.003-39.284-40.218V56.295l-8.885-1.559c-.156-2.183-.31-5.144-.31-7.327 0-2.181.154-5.144.31-7.326h36.79c.313 2.182.469 5.145.469 7.326 0 2.183-.156 5.144-.468 7.327l-8.418 1.559v50.194c0 16.836 4.988 23.227 20.108 23.227 15.122 0 20.422-6.39 20.422-23.227V56.295l-8.418-1.559c-.313-2.183-.468-5.144-.468-7.327 0-2.181.155-5.144.468-7.326h35.852c.314 2.182.468 5.145.468 7.326 0 2.183-.154 5.144-.468 7.327M545.82 98.85h-14.497v31.801c2.962.157 9.977.313 13.406.313 12.315 0 17.927-5.145 17.927-16.68 0-10.6-6.392-15.433-16.836-15.433zm-2.181-44.737c-3.275 0-8.419.155-12.316.311v29.773h14.341c8.73 0 14.343-4.988 14.343-15.432 0-10.288-5.612-14.652-16.368-14.652zm.466 91.971c-10.91 0-29.773-.312-42.4-.936-.156-2.182-.312-5.143-.312-7.327 0-2.182.156-5.144.312-7.326l10.6-1.558V56.295l-10.6-1.559c-.156-2.183-.312-5.144-.312-7.327 0-2.181.156-5.144.312-7.326 12.938-.624 27.435-.935 40.842-.935 24.006 0 37.257 8.105 37.257 27.747 0 10.756-6.236 18.861-14.341 22.604v1.245c11.066 3.585 17.302 12.316 17.302 24.475 0 22.602-16.524 30.865-38.66 30.865" fill="#231f20"/></svg>